<?xml version="1.0" encoding="utf-8"?>
<svg version="1.1" xmlns:xlink="http://www.w3.org/1999/xlink" width="244px" height="33px" xmlns="http://www.w3.org/2000/svg">
  <defs>
    <pattern id="BGPattern" patternUnits="userSpaceOnUse" alignment="0 0" imageRepeat="None" />
<<<<<<< HEAD
    <mask fill="white" id="Clip6">
=======
    <mask fill="white" id="Clip2">
>>>>>>> b0d573fdccfb1961751949212f3fa369a7540754
      <path d="M 0 33  L 0 0  L 244 0  L 244 33  L 0 33  Z " fill-rule="evenodd" />
    </mask>
  </defs>
  <g transform="matrix(1 0 0 1 -542 -305 )">
    <path d="M 0 33  L 0 0  L 244 0  L 244 33  L 0 33  Z " fill-rule="nonzero" fill="rgba(255, 255, 255, 0)" stroke="none" transform="matrix(1 0 0 1 542 305 )" class="fill" />
<<<<<<< HEAD
    <path d="M 0 33  L 0 0  L 244 0  L 244 33  L 0 33  Z " stroke-width="4" stroke-dasharray="6,2" stroke="rgba(217, 0, 27, 1)" fill="none" transform="matrix(1 0 0 1 542 305 )" class="stroke" mask="url(#Clip6)" />
=======
    <path d="M 0 33  L 0 0  L 244 0  L 244 33  L 0 33  Z " stroke-width="4" stroke-dasharray="6,2" stroke="rgba(217, 0, 27, 1)" fill="none" transform="matrix(1 0 0 1 542 305 )" class="stroke" mask="url(#Clip2)" />
>>>>>>> b0d573fdccfb1961751949212f3fa369a7540754
  </g>
</svg>