<?xml version="1.0" encoding="utf-8"?>
<svg version="1.1" xmlns:xlink="http://www.w3.org/1999/xlink" width="102px" height="35px" xmlns="http://www.w3.org/2000/svg">
  <defs>
    <pattern id="BGPattern" patternUnits="userSpaceOnUse" alignment="0 0" imageRepeat="None" />
    <mask fill="white" id="Clip36">
      <path d="M 71 35  L 102 17.5  L 71.39999999999999 0  L 71.39999999999999 10  L 0 10  L 0 25  L 71 25  L 71 35  Z " fill-rule="evenodd" />
    </mask>
  </defs>
  <g transform="matrix(1 0 0 1 -293 -28 )">
    <path d="M 71 35  L 102 17.5  L 71.39999999999999 0  L 71.39999999999999 10  L 0 10  L 0 25  L 71 25  L 71 35  Z " fill-rule="nonzero" fill="rgba(217, 0, 27, 1)" stroke="none" transform="matrix(1 0 0 1 293 28 )" class="fill" />
    <path d="M 71 35  L 102 17.5  L 71.39999999999999 0  L 71.39999999999999 10  L 0 10  L 0 25  L 71 25  L 71 35  Z " stroke-width="0" stroke-dasharray="0" stroke="rgba(121, 121, 121, 1)" fill="none" transform="matrix(1 0 0 1 293 28 )" class="stroke" mask="url(#Clip36)" />
  </g>
</svg>